<svg width="384" height="90" viewBox="0 0 384 90" fill="none" xmlns="http://www.w3.org/2000/svg">
<path d="M152.041 60.6311C143.604 60.6311 136.766 53.642 136.766 45.0186C136.766 36.3967 143.604 29.4065 152.041 29.4065C160.477 29.4065 167.314 36.3967 167.314 45.0186C167.314 53.642 160.477 60.6311 152.041 60.6311ZM167.363 62.6117C167.363 64.0408 169.813 68.0572 172.815 68.0572H174.759C175.513 68.0572 176.13 67.4396 176.13 66.6862V23.9625H176.122C176.083 23.2432 175.487 22.6665 174.759 22.6665H168.735C168.006 22.6665 167.411 23.2432 167.37 23.9625H167.363V27.4343C163.672 22.8877 157.853 21.0015 152.017 21.0015C138.752 21.0015 128 31.7535 128 45.0186C128 58.2838 138.752 69.0376 152.017 69.0376C157.853 69.0376 164.213 66.7736 167.363 62.6055L167.363 62.6117ZM190.523 56.493C194.544 59.2781 198.934 60.6311 203.152 60.6311C207.171 60.6311 211.325 58.5474 211.325 54.9219C211.325 50.0805 202.272 49.3269 196.585 47.3942C190.896 45.4611 185.995 41.4641 185.995 34.9925C185.995 25.0903 194.819 21 203.054 21C208.273 21 213.656 22.7209 217.147 25.1861C218.35 26.0963 217.617 27.1425 217.617 27.1425L214.285 31.9013C213.911 32.437 213.134 32.8652 212.316 32.3196C210.071 30.836 207.571 29.4062 203.054 29.4062C197.463 29.4062 195.003 31.7272 195.003 34.6026C195.003 38.0522 198.937 39.1368 203.545 40.3129C211.575 42.4763 220.334 45.0786 220.334 54.9219C220.334 63.6466 212.172 69.0391 203.152 69.0391C196.317 69.0391 190.497 67.09 185.616 63.5084C184.6 62.491 185.31 61.5461 185.31 61.5461L188.625 56.8122C189.3 55.9261 190.15 56.2355 190.523 56.493ZM265.513 62.6117C265.513 64.0408 267.962 68.0572 270.964 68.0572H272.908C273.662 68.0572 274.279 67.4396 274.279 66.6862V23.9625H274.271C274.231 23.2432 273.636 22.6665 272.908 22.6665H266.884C266.155 22.6665 265.56 23.2432 265.52 23.9625H265.513V27.4343C261.822 22.8877 256.002 21.0015 250.167 21.0015C236.902 21.0015 226.148 31.7535 226.148 45.0186C226.148 58.2838 236.902 69.0376 250.167 69.0376C256.002 69.0376 262.362 66.7736 265.512 62.6055L265.513 62.6117ZM250.19 60.6311C241.753 60.6311 234.915 53.642 234.915 45.0186C234.915 36.3967 241.753 29.4065 250.19 29.4065C258.625 29.4065 265.464 36.3967 265.464 45.0186C265.464 53.642 258.625 60.6311 250.19 60.6311ZM328.253 64.08L328.251 41.9732C328.251 29.5107 320.389 21.1039 307.851 21.1039C301.867 21.1039 296.97 24.5644 295.238 27.5367V27.4954L295.228 27.5294C295.224 24.5209 292.784 22.7692 289.776 22.7692H287.842C287.087 22.7692 286.471 23.3869 286.471 24.1409V62.7185V62.7251V66.8673H286.479C286.518 67.5866 287.114 68.164 287.842 68.164H293.866C293.958 68.164 294.049 68.153 294.137 68.1366C294.177 68.1282 294.213 68.1124 294.252 68.1011C294.298 68.0879 294.344 68.077 294.386 68.0591C294.441 68.0371 294.489 68.0068 294.539 67.979C294.563 67.9643 294.589 67.9537 294.613 67.9391C294.672 67.9 294.728 67.8532 294.781 67.8053C294.79 67.7961 294.8 67.7903 294.809 67.7819C294.869 67.7244 294.923 67.6615 294.972 67.5943L294.973 67.5935C295.123 67.3862 295.215 67.1371 295.23 66.8673H295.238V41.6301C295.238 34.9369 300.664 29.5107 307.358 29.5107C314.051 29.5107 319.478 34.9369 319.478 41.6301L319.482 62.7258L319.484 62.7185C319.484 62.7368 319.488 62.7565 319.488 62.7759V66.8673H319.496C319.535 67.5866 320.13 68.164 320.859 68.164H326.883C326.976 68.164 327.065 68.153 327.153 68.1366C327.189 68.1285 327.222 68.1143 327.256 68.1059C327.306 68.0912 327.357 68.0784 327.404 68.0591C327.453 68.0382 327.498 68.0104 327.544 67.9845C327.573 67.9687 327.603 67.9567 327.63 67.9391C327.686 67.9014 327.737 67.8576 327.787 67.8144C327.8 67.8031 327.814 67.7932 327.826 67.7815C327.883 67.7266 327.933 67.667 327.98 67.6049C327.983 67.5994 327.987 67.5957 327.991 67.5913C328.14 67.3862 328.23 67.139 328.246 66.8709C328.246 66.8695 328.247 66.8673 328.247 66.8673H328.254V64.0811L328.253 64.08ZM375.234 62.6117C375.234 64.0408 377.681 68.0572 380.683 68.0572H382.629C383.382 68.0572 384 67.4396 384 66.6862V23.9625H383.993C383.952 23.2432 383.356 22.6665 382.629 22.6665H376.606C375.874 22.6665 375.282 23.2432 375.242 23.9625H375.234V27.4343C371.541 22.8877 365.723 21.0015 359.886 21.0015C346.623 21.0015 335.869 31.7535 335.869 45.0186C335.869 58.2838 346.623 69.0376 359.886 69.0376C365.723 69.0376 372.082 66.7736 375.231 62.6055L375.234 62.6117ZM359.912 60.6311C351.475 60.6311 344.637 53.642 344.637 45.0186C344.637 36.3967 351.475 29.4065 359.912 29.4065C368.345 29.4065 375.183 36.3967 375.183 45.0186C375.183 53.642 368.345 60.6311 359.912 60.6311Z" fill="white"/>
<path d="M75.7325 47.3578C64.107 47.3578 54.6843 56.7809 54.6843 68.4053C54.6843 80.0305 64.107 89.4543 75.7325 89.4543C87.3566 89.4543 96.78 80.0305 96.78 68.4053C96.78 56.7809 87.3566 47.3578 75.7325 47.3578ZM21.0479 47.3593C9.42379 47.3593 0 56.7809 0 68.4064C0 80.0305 9.42379 89.4543 21.0479 89.4543C32.6727 89.4543 42.0968 80.0305 42.0968 68.4064C42.0968 56.7809 32.6727 47.3593 21.0479 47.3593ZM69.4373 21.0475C69.4373 32.672 60.0147 42.0972 48.3906 42.0972C36.7654 42.0972 27.3423 32.672 27.3423 21.0475C27.3423 9.4238 36.7654 0 48.3906 0C60.0147 0 69.4373 9.4238 69.4373 21.0475Z" fill="url(#paint0_radial_703_3)"/>
<defs>
<radialGradient id="paint0_radial_703_3" cx="0" cy="0" r="1" gradientUnits="userSpaceOnUse" gradientTransform="translate(4839 4888.87) scale(6412.97 5927.54)">
<stop stop-color="#FFB900"/>
<stop offset="0.6" stop-color="#F95D8F"/>
<stop offset="0.9991" stop-color="#F95353"/>
</radialGradient>
</defs>
</svg>
