<svg width="394" height="85" viewBox="0 0 394 85" fill="none" xmlns="http://www.w3.org/2000/svg">
<path d="M9.68187 67.1841C7.96129 67.1878 6.27054 66.7348 4.78236 65.8712C3.29418 65.0077 2.06191 63.7645 1.21144 62.2688C0.373976 60.7837 -0.0436861 59.0987 0.00318676 57.3943C0.0500597 55.69 0.559702 54.0305 1.47752 52.5936L18.921 25.2014C19.8138 23.7293 21.0813 22.5205 22.5942 21.6985C24.107 20.8765 25.8109 20.4707 27.5319 20.5227C29.2515 20.564 30.9293 21.0613 32.3936 21.9639C33.8579 22.8665 35.0561 24.142 35.8656 25.6597C37.4917 28.7345 37.2884 32.4338 35.3408 35.3201L17.9084 62.7123C17.0244 64.0899 15.8069 65.2219 14.3688 66.0036C12.9308 66.7853 11.3186 67.1914 9.68187 67.1841Z" fill="#F62B54"/>
<path d="M39.6022 67.1833C36.084 67.1833 32.8466 65.3023 31.1466 62.2792C30.311 60.7981 29.8943 59.1175 29.9412 57.4176C29.9881 55.7177 30.4967 54.0627 31.4127 52.6299L48.8229 25.3005C49.7025 23.8076 50.9656 22.5773 52.481 21.7371C53.9964 20.8968 55.709 20.4773 57.4412 20.522C60.989 20.5996 64.2042 22.5842 65.8303 25.6886C67.4453 28.7929 67.2088 32.5144 65.202 35.3933L47.7955 62.7227C46.9142 64.0944 45.7017 65.222 44.2698 66.0016C42.8378 66.7812 41.2326 67.1876 39.6022 67.1833Z" fill="#FFCC00"/>
<path d="M68.8534 67.4124C73.8131 67.4124 77.8338 63.4761 77.8338 58.6204C77.8338 53.7648 73.8131 49.8285 68.8534 49.8285C63.8936 49.8285 59.8729 53.7648 59.8729 58.6204C59.8729 63.4761 63.8936 67.4124 68.8534 67.4124Z" fill="#00CA72"/>
<path fill-rule="evenodd" clip-rule="evenodd" d="M393.095 22.7504H379.972L370.773 46.4654L361.623 22.7504H348.5L364.454 60.2243L354.531 85H367.558L393.095 22.7504ZM313.284 43.5939C313.284 49.5809 318.517 53.5204 323.657 53.5204C328.709 53.5204 333.673 49.8543 333.673 43.5902C333.673 37.3261 328.709 33.6563 323.657 33.6563C318.517 33.6563 313.284 37.6033 313.284 43.5939ZM333.673 64.5187V59.7772C331.012 63.8054 324.803 65.328 321.617 65.328C311.07 65.328 300.519 57.0128 300.519 43.5902C300.519 30.1713 311.066 21.8561 321.617 21.8561C324.275 21.8561 330.483 22.743 333.673 27.3996V22.7652H345.905V64.5261L333.673 64.5187ZM297.038 64.5187H284.805V59.33C282.761 63.1735 277.805 65.413 272.661 65.413C262.021 65.413 252.623 56.9167 252.623 43.7602C252.623 30.3561 262.021 21.8487 272.661 21.8487C277.798 21.8487 282.769 23.9922 284.805 27.8393V0H297.038V64.5187ZM284.539 43.4978C284.539 37.2374 280.019 33.5676 274.967 33.5676C269.734 33.5676 265.388 37.5035 265.388 43.4978C265.388 49.6844 269.734 53.6017 274.964 53.6017C280.112 53.6091 284.539 49.4922 284.539 43.4978ZM222.378 42.4187C222.378 36.0696 225.66 33.9224 230.002 33.9224C234.167 33.9224 237.183 36.6941 237.183 42.2376V64.5113H249.504V39.5583C249.504 27.6657 243.65 21.8487 234.341 21.8487C229.466 21.8487 224.592 24.6204 222.374 28.8261V22.7504H210.06V64.5113H222.378V42.4187ZM185.041 65.2283C173.34 65.2283 163.58 56.6433 163.58 43.4941C163.58 30.3376 173.329 21.8376 185.041 21.8376C196.752 21.8376 206.587 30.3376 206.587 43.4941C206.587 56.6507 196.741 65.2283 185.041 65.2283ZM185.041 53.0696C190.178 53.0696 194.439 49.3074 194.439 43.4978C194.439 37.862 190.182 34.0148 185.041 34.0148C183.803 33.9954 182.574 34.2282 181.429 34.699C180.285 35.1698 179.247 35.8688 178.381 36.7533C177.51 37.6425 176.827 38.6978 176.372 39.8564C175.916 41.0151 175.699 42.2534 175.732 43.4978C175.735 49.3148 179.989 53.0696 185.041 53.0696ZM141.491 33.9261C145.124 33.9261 148.317 36.7902 148.317 42.2413V64.5187H160.55V40.8C160.55 28.1904 154.419 21.8413 144.592 21.8413C141.672 21.8413 136.173 22.7283 132.182 29.2622C129.876 24.432 125.445 21.9263 118.896 21.9263C116.622 21.9147 114.394 22.5582 112.476 23.7798C110.558 25.0015 109.033 26.7495 108.083 28.815V22.7541H95.754V64.515H108.072V42.4187C108.072 36.0696 111.531 33.9224 115.252 33.9224C118.8 33.9224 121.986 36.6941 122.078 41.9715V64.515H134.399V42.4187C134.399 36.3467 137.592 33.9261 141.491 33.9261Z" fill="white"/>
</svg>
